<svg xmlns="http://www.w3.org/2000/svg" version="1.1" xmlns:xlink="http://www.w3.org/1999/xlink" xmlns:svgjs="http://svgjs.com/svgjs" width="720" height="360" preserveAspectRatio="none" viewBox="0 0 720 360"><g mask="url(&quot;#SvgjsMask1067&quot;)" fill="none"><path d="M592.5701467816673 296.4597372612657L603.662760496267 366.49574390352427 673.6987671385255 355.4031301889246 662.6061534239259 285.367123546666z" fill="rgba(13, 193, 26, 0.81)" class="triangle-float2"></path><path d="M209.57207930694443 161.20773360775974L190.98772617731439 96.39639207404807 144.76073777323276 179.79208673738978z" fill="rgba(13, 193, 26, 0.81)" class="triangle-float3"></path><path d="M316.30059988047014 255.8657892641847L390.69999900335876 203.77076916006519 338.60497889923926 129.37137003717658 264.20557977635065 181.46639014129607z" fill="rgba(13, 193, 26, 0.81)" class="triangle-float2"></path><path d="M492.5 219.41 a103.82 103.82 0 1 0 207.64 0 a103.82 103.82 0 1 0 -207.64 0z" fill="rgba(13, 193, 26, 0.81)" class="triangle-float3"></path><path d="M293.441,357.642C302.258,357.392,308.476,349.98,312.765,342.272C316.905,334.831,319.185,326.078,315.184,318.562C310.966,310.639,302.417,305.923,293.441,305.973C284.549,306.023,276.514,311.075,272.115,318.803C267.764,326.447,267.891,335.712,272.125,343.422C276.531,351.447,284.29,357.901,293.441,357.642" fill="rgba(13, 193, 26, 0.81)" class="triangle-float3"></path><path d="M230.57 334.02 a88.92 88.92 0 1 0 177.84 0 a88.92 88.92 0 1 0 -177.84 0z" fill="rgba(13, 193, 26, 0.81)" class="triangle-float1"></path><path d="M392.58 115.83 a69.53 69.53 0 1 0 139.06 0 a69.53 69.53 0 1 0 -139.06 0z" fill="rgba(13, 193, 26, 0.81)" class="triangle-float2"></path><path d="M64.97 41.21 a74.76 74.76 0 1 0 149.52 0 a74.76 74.76 0 1 0 -149.52 0z" fill="rgba(13, 193, 26, 0.81)" class="triangle-float3"></path><path d="M258.125,192.185C273.18,191.429,280.578,175.388,287.721,162.114C294.325,149.84,300.858,136.391,294.937,123.773C288.206,109.43,273.939,98.069,258.125,99.043C243.362,99.953,235.352,114.81,228.413,127.872C222.061,139.83,217.213,153.076,222.892,165.368C229.526,179.729,242.326,192.978,258.125,192.185" fill="rgba(13, 193, 26, 0.81)" class="triangle-float3"></path><path d="M-68.47 314.29 a98.65 98.65 0 1 0 197.3 0 a98.65 98.65 0 1 0 -197.3 0z" fill="rgba(13, 193, 26, 0.81)" class="triangle-float1"></path><path d="M743.738727310944 49.47347226270865L665.9836491295359 60.40123585267345 754.6664909009088 127.22855044411665z" fill="rgba(13, 193, 26, 0.81)" class="triangle-float2"></path><path d="M299.368,160.513C317.749,160.654,329.821,143.271,338.438,127.034C346.388,112.055,350.316,94.635,342.245,79.721C333.816,64.143,317.079,54.651,299.368,54.832C281.955,55.01,266.155,65.206,257.985,80.584C250.278,95.091,253.768,111.855,261.321,126.443C269.71,142.646,281.123,160.373,299.368,160.513" fill="rgba(13, 193, 26, 0.81)" class="triangle-float1"></path><path d="M133.1855399968002 306.6895369485652L234.40952260420443 299.61126655260404 227.33125220824328 198.3872839451998 126.10726960083905 205.46555434116095z" fill="rgba(13, 193, 26, 0.81)" class="triangle-float3"></path><path d="M295.77380866684587 290.177143317007L250.3435745187251 241.45918172746747 247.05584707730634 335.60737746512774z" fill="rgba(13, 193, 26, 0.81)" class="triangle-float3"></path><path d="M173.30956373369077 174.29073460075512L205.11799827545906 76.39443926823827 107.22170294294222 44.58600472646998 75.41326840117392 142.48230005898682z" fill="rgba(13, 193, 26, 0.81)" class="triangle-float2"></path><path d="M642.5589531450739 18.841582222060914L597.1163612532329 40.03181082763862 651.6230001075199 97.6005843626113z" fill="rgba(13, 193, 26, 0.81)" class="triangle-float3"></path><path d="M490.919,397.285C507.86,396.879,520.528,383.053,528.178,367.932C535.033,354.381,534.232,338.93,527.267,325.435C519.576,310.535,507.668,296.547,490.919,295.743C473.028,294.885,456.575,305.915,447.982,321.631C439.716,336.749,441.926,354.811,450.431,369.796C459.061,385.002,473.44,397.704,490.919,397.285" fill="rgba(13, 193, 26, 0.81)" class="triangle-float1"></path><path d="M62.132,295.25C74.427,294.675,81.913,283.199,88.007,272.505C94.017,261.959,100.324,249.53,94.136,239.088C88.015,228.759,74.116,228.12,62.132,228.84C51.655,229.469,41.927,233.801,36.161,242.571C29.71,252.384,26.502,264.606,31.695,275.139C37.459,286.829,49.112,295.859,62.132,295.25" fill="rgba(13, 193, 26, 0.81)" class="triangle-float3"></path><path d="M262.06 152.91 a74.74 74.74 0 1 0 149.48 0 a74.74 74.74 0 1 0 -149.48 0z" fill="rgba(13, 193, 26, 0.81)" class="triangle-float3"></path><path d="M515.755,357.34C525.244,357.243,532.66,350.071,537.286,341.786C541.778,333.741,543.201,324.146,538.816,316.042C534.225,307.557,525.402,302.041,515.755,301.995C506.032,301.949,497.028,307.318,492.314,315.822C487.735,324.083,488.806,334.009,493.45,342.234C498.182,350.615,506.131,357.438,515.755,357.34" fill="rgba(13, 193, 26, 0.81)" class="triangle-float3"></path></g><defs><mask id="SvgjsMask1067"><rect width="720" height="360" fill="#ffffff"></rect></mask><style>
            @keyframes float1 {
                0%{transform: translate(0, 0)}
                50%{transform: translate(-10px, 0)}
                100%{transform: translate(0, 0)}
            }

            .triangle-float1 {
                animation: float1 5s infinite;
            }

            @keyframes float2 {
                0%{transform: translate(0, 0)}
                50%{transform: translate(-5px, -5px)}
                100%{transform: translate(0, 0)}
            }

            .triangle-float2 {
                animation: float2 4s infinite;
            }

            @keyframes float3 {
                0%{transform: translate(0, 0)}
                50%{transform: translate(0, -10px)}
                100%{transform: translate(0, 0)}
            }

            .triangle-float3 {
                animation: float3 6s infinite;
            }
        </style></defs></svg>