<svg xmlns="http://www.w3.org/2000/svg" version="1.1" xmlns:xlink="http://www.w3.org/1999/xlink" xmlns:svgjs="http://svgjs.com/svgjs" width="1440" height="560" preserveAspectRatio="none" viewBox="0 0 1440 560"><g mask="url(&quot;#SvgjsMask1015&quot;)" fill="none"><path d="M1028.829,407.727C1054.665,408.134,1075.194,388.43,1087.821,365.887C1100.12,343.931,1104.692,317.081,1091.664,295.55C1079.004,274.626,1053.264,267.387,1028.829,268.389C1006.273,269.314,985.706,280.864,974.325,300.36C962.846,320.025,962.662,343.775,972.969,364.079C984.433,386.663,1003.505,407.328,1028.829,407.727" fill="rgba(28, 83, 142, 0.85)" class="triangle-float3"></path><path d="M527.25 469.25 a146.07 146.07 0 1 0 292.14 0 a146.07 146.07 0 1 0 -292.14 0z" fill="rgba(28, 83, 142, 0.85)" class="triangle-float3"></path><path d="M681.0282260893048 248.41027574094903L696.518802540882 73.27470650435637 556.112603970269 135.78757370311973z" fill="rgba(28, 83, 142, 0.85)" class="triangle-float2"></path><path d="M820.7112314069257 226.6341893180161L921.3366326887076 327.259590599798 1021.9620339704895 226.63418931801607 921.3366326887076 126.00878803623414z" fill="rgba(28, 83, 142, 0.85)" class="triangle-float1"></path><path d="M955.7292028516196 176.29471711687376L919.2756172777512 266.5205075306413 1072.8410956853368 276.08799068456005z" fill="rgba(28, 83, 142, 0.85)" class="triangle-float2"></path><path d="M-69.19 542.09 a128.07 128.07 0 1 0 256.14 0 a128.07 128.07 0 1 0 -256.14 0z" fill="rgba(28, 83, 142, 0.85)" class="triangle-float3"></path><path d="M731.6666955457382 503.5580803035494L842.3594642362661 515.1923591062077 804.4644980949896 343.33606666908656z" fill="rgba(28, 83, 142, 0.85)" class="triangle-float1"></path><path d="M521.08 41.42 a100.58 100.58 0 1 0 201.16 0 a100.58 100.58 0 1 0 -201.16 0z" fill="rgba(28, 83, 142, 0.85)" class="triangle-float2"></path><path d="M1075.27 147.13 a155.72 155.72 0 1 0 311.44 0 a155.72 155.72 0 1 0 -311.44 0z" fill="rgba(28, 83, 142, 0.85)" class="triangle-float3"></path><path d="M1147.995,74.707C1173.956,76.383,1201.124,67.69,1214.698,45.497C1228.778,22.478,1226.693,-7.332,1212.031,-29.985C1198.496,-50.896,1172.9,-57.116,1147.995,-57.557C1122.056,-58.017,1092.564,-54.97,1079.904,-32.326C1067.417,-9.991,1080.975,16.16,1094.71,37.75C1107.145,57.297,1124.876,73.214,1147.995,74.707" fill="rgba(28, 83, 142, 0.85)" class="triangle-float3"></path><path d="M927.91 117.27 a151.09 151.09 0 1 0 302.18 0 a151.09 151.09 0 1 0 -302.18 0z" fill="rgba(28, 83, 142, 0.85)" class="triangle-float1"></path><path d="M788.194,618.101C823.276,618.835,859.347,605.083,876.072,574.235C892.21,544.47,879.467,509.897,862.858,480.392C845.82,450.124,822.923,417.543,788.194,418.124C754.024,418.695,733.871,452.693,717.733,482.818C702.788,510.716,691.844,542.616,706.464,570.686C722.058,600.625,754.444,617.395,788.194,618.101" fill="rgba(28, 83, 142, 0.85)" class="triangle-float2"></path><path d="M368.6 383.89 a176.06 176.06 0 1 0 352.12 0 a176.06 176.06 0 1 0 -352.12 0z" fill="rgba(28, 83, 142, 0.85)" class="triangle-float1"></path><path d="M542.4631016983644 434.876734732154L670.5181655574916 464.4405756897791 572.0269426559896 306.8216708730268z" fill="rgba(28, 83, 142, 0.85)" class="triangle-float3"></path><path d="M214.771,467.216C244.579,466.955,277.031,464.878,293.698,440.164C312.051,412.948,312.106,376.29,294.97,348.292C278.491,321.367,246.278,309.243,214.771,311.204C186.476,312.965,165.192,333.254,150.183,357.305C133.933,383.343,117.866,415.103,133.416,441.565C148.856,467.84,184.296,467.482,214.771,467.216" fill="rgba(28, 83, 142, 0.85)" class="triangle-float3"></path><path d="M395.5655253632277 225.73611160942303L407.98051211471403 137.3988907740962 319.6432912793872 124.98390402260988 307.2283045279009 213.3211248579367z" fill="rgba(28, 83, 142, 0.85)" class="triangle-float1"></path><path d="M129.18031558725903 147.71126806670276L36.2827890919517 80.21726432135719 61.686311841913465 240.60879456201008z" fill="rgba(28, 83, 142, 0.85)" class="triangle-float1"></path><path d="M1321.3840853142956 142.47546782425803L1293.8520111568816 238.1470100992616 1378.6476551319656 218.57039315940662z" fill="rgba(28, 83, 142, 0.85)" class="triangle-float3"></path><path d="M1340.2916062598958 145.75759584614153L1497.8513747383586 91.50541681548025 1443.5991957076972-66.05435166298244 1286.0394272292347-11.802172632321174z" fill="rgba(28, 83, 142, 0.85)" class="triangle-float3"></path><path d="M1176.31 363.59 a138.15 138.15 0 1 0 276.3 0 a138.15 138.15 0 1 0 -276.3 0z" fill="rgba(28, 83, 142, 0.85)" class="triangle-float2"></path></g><defs><mask id="SvgjsMask1015"><rect width="1440" height="560" fill="#ffffff"></rect></mask><style>
            @keyframes float1 {
                0%{transform: translate(0, 0)}
                50%{transform: translate(-10px, 0)}
                100%{transform: translate(0, 0)}
            }

            .triangle-float1 {
                animation: float1 5s infinite;
            }

            @keyframes float2 {
                0%{transform: translate(0, 0)}
                50%{transform: translate(-5px, -5px)}
                100%{transform: translate(0, 0)}
            }

            .triangle-float2 {
                animation: float2 4s infinite;
            }

            @keyframes float3 {
                0%{transform: translate(0, 0)}
                50%{transform: translate(0, -10px)}
                100%{transform: translate(0, 0)}
            }

            .triangle-float3 {
                animation: float3 6s infinite;
            }
        </style></defs></svg>