<svg xmlns="http://www.w3.org/2000/svg" version="1.1" xmlns:xlink="http://www.w3.org/1999/xlink" xmlns:svgjs="http://svgjs.com/svgjs" width="720" height="360" preserveAspectRatio="none" viewBox="0 0 720 360"><g mask="url(&quot;#SvgjsMask1062&quot;)" fill="none"><path d="M131.46,270.907C143.724,271.9,157.671,270.485,164.129,260.012C170.797,249.199,166.594,235.529,159.953,224.699C153.662,214.441,143.481,206.197,131.46,206.74C120.133,207.252,112.227,216.973,107.103,227.088C102.536,236.103,101.914,246.54,106.824,255.373C111.879,264.468,121.089,270.068,131.46,270.907" fill="rgba(13, 100, 193, 0.81)" class="triangle-float1"></path><path d="M270.5780269056491 68.76688466554077L288.39344928435503 17.027141202913654 236.65370582172795-0.7882811757923065 218.83828344302196 50.95146228683481z" fill="rgba(13, 100, 193, 0.81)" class="triangle-float1"></path><path d="M349.0874702181799 239.8097687004144L336.96548495954937 326.06217558486145 435.33987710262693 251.93175395904487z" fill="rgba(13, 100, 193, 0.81)" class="triangle-float3"></path><path d="M146.15534718942294-24.86583725689617L70.40907512598699-42.353242072686385 128.6679423736327 50.88043480653978z" fill="rgba(13, 100, 193, 0.81)" class="triangle-float3"></path><path d="M122.113,304.434C136.837,304.995,150.232,295.958,157.401,283.084C164.381,270.549,164.37,254.84,156.356,242.94C149.098,232.161,135.081,229.846,122.113,230.68C110.766,231.41,100.725,237.24,94.735,246.904C88.365,257.181,85.998,269.644,91.194,280.562C97.191,293.164,108.167,303.903,122.113,304.434" fill="rgba(13, 100, 193, 0.81)" class="triangle-float2"></path><path d="M51.669495288193595 9.47158971341206L-26.297259964912435 14.923556345841721 57.121461920623254 87.43834496651809z" fill="rgba(13, 100, 193, 0.81)" class="triangle-float3"></path><path d="M404.408,375.696C425.494,376.155,446.487,366.234,456.311,347.571C465.613,329.899,459.224,308.985,448.337,292.243C438.542,277.18,422.356,268.599,404.408,267.755C384.621,266.825,363.129,270.911,352.692,287.747C341.819,305.285,345.816,327.606,356.276,345.394C366.576,362.91,384.093,375.254,404.408,375.696" fill="rgba(13, 100, 193, 0.81)" class="triangle-float2"></path><path d="M635.08 325.8 a69.6 69.6 0 1 0 139.2 0 a69.6 69.6 0 1 0 -139.2 0z" fill="rgba(13, 100, 193, 0.81)" class="triangle-float1"></path><path d="M407.9938405023536 246.81546106393355L433.5925193714821 189.31988696050604 376.0969452680546 163.72120809137752 350.49826639892603 221.21678219480503z" fill="rgba(13, 100, 193, 0.81)" class="triangle-float2"></path><path d="M88.36100060080757 309.0979382951564L15.051398572481489 257.7660023317687-36.28053739090622 331.07560436009476 37.02906463741986 382.40754032348246z" fill="rgba(13, 100, 193, 0.81)" class="triangle-float3"></path><path d="M555.1668438901144 375.4824205619737L625.706734731719 387.92050653357853 567.6049298617193 304.94252972036895z" fill="rgba(13, 100, 193, 0.81)" class="triangle-float2"></path><path d="M90.194,267.951C103.291,267.651,114.994,259.694,120.99,248.047C126.528,237.289,123.314,225.1,117.798,214.33C111.576,202.182,103.832,188.467,90.194,187.916C75.981,187.342,65.206,199.421,58.435,211.931C52.038,223.75,50.229,237.823,56.857,249.514C63.569,261.354,76.588,268.262,90.194,267.951" fill="rgba(13, 100, 193, 0.81)" class="triangle-float2"></path><path d="M583.44 97.32 a80.62 80.62 0 1 0 161.24 0 a80.62 80.62 0 1 0 -161.24 0z" fill="rgba(13, 100, 193, 0.81)" class="triangle-float3"></path><path d="M133.28 99.31 a113.12 113.12 0 1 0 226.24 0 a113.12 113.12 0 1 0 -226.24 0z" fill="rgba(13, 100, 193, 0.81)" class="triangle-float1"></path><path d="M246.41127342766222 352.30052430586886L341.02479658420657 383.0423215094183 277.1530706312116 257.6870011493245z" fill="rgba(13, 100, 193, 0.81)" class="triangle-float3"></path><path d="M412.18 145.53 a78.81 78.81 0 1 0 157.62 0 a78.81 78.81 0 1 0 -157.62 0z" fill="rgba(13, 100, 193, 0.81)" class="triangle-float3"></path><path d="M611.8701898743238 124.2282691040509L640.1531785391701 60.70363648689016 576.6285459220093 32.420647822043975 548.3455572571631 95.94528043920471z" fill="rgba(13, 100, 193, 0.81)" class="triangle-float3"></path><path d="M661.0530959732929 39.47237707811148L650.0442072724047 83.62661797905187 721.7800129742593 78.06283057991389z" fill="rgba(13, 100, 193, 0.81)" class="triangle-float2"></path><path d="M653.8061934441632 178.73110439113552L712.5693191105998 160.76541393649495 694.6036286559593 102.00228827005836 635.8405029895226 119.96797872469894z" fill="rgba(13, 100, 193, 0.81)" class="triangle-float3"></path><path d="M711.892,252.434C734.661,252.959,752.707,235.078,763.514,215.03C773.717,196.104,774.818,173.716,764.494,154.856C753.737,135.204,734.276,121.643,711.892,120.72C687.809,119.727,662.284,128.783,651.2,150.186C640.702,170.457,652.585,193.109,664.237,212.739C675.547,231.793,689.74,251.923,711.892,252.434" fill="rgba(13, 100, 193, 0.81)" class="triangle-float3"></path></g><defs><mask id="SvgjsMask1062"><rect width="720" height="360" fill="#ffffff"></rect></mask><style>
            @keyframes float1 {
                0%{transform: translate(0, 0)}
                50%{transform: translate(-10px, 0)}
                100%{transform: translate(0, 0)}
            }

            .triangle-float1 {
                animation: float1 5s infinite;
            }

            @keyframes float2 {
                0%{transform: translate(0, 0)}
                50%{transform: translate(-5px, -5px)}
                100%{transform: translate(0, 0)}
            }

            .triangle-float2 {
                animation: float2 4s infinite;
            }

            @keyframes float3 {
                0%{transform: translate(0, 0)}
                50%{transform: translate(0, -10px)}
                100%{transform: translate(0, 0)}
            }

            .triangle-float3 {
                animation: float3 6s infinite;
            }
        </style></defs></svg>