<svg xmlns="http://www.w3.org/2000/svg" version="1.1" xmlns:xlink="http://www.w3.org/1999/xlink" xmlns:svgjs="http://svgjs.com/svgjs" width="720" height="360" preserveAspectRatio="none" viewBox="0 0 720 360"><g mask="url(&quot;#SvgjsMask1064&quot;)" fill="none"><path d="M390.57 99.51 a95.28 95.28 0 1 0 190.56 0 a95.28 95.28 0 1 0 -190.56 0z" fill="rgba(13, 193, 26, 0.81)" class="triangle-float1"></path><path d="M569.2990502420993-22.510131822935605L545.264522192879 73.88709502340964 665.6962770884445 1.524396226284697z" fill="rgba(13, 193, 26, 0.81)" class="triangle-float1"></path><path d="M127.90225633106456 241.69767595042856L177.3553755355302 219.679728702618 155.33742828771966 170.22660949815238 105.88430908325401 192.24455674596294z" fill="rgba(13, 193, 26, 0.81)" class="triangle-float3"></path><path d="M544.8505444477825 54.25578136649803L444.18692848859587-1.6684497219389565 444.18692848859587 98.99516623724762z" fill="rgba(13, 193, 26, 0.81)" class="triangle-float3"></path><path d="M688.204,144.297C709.489,144.447,727.953,130.212,737.861,111.373C747.11,93.787,744.285,73.264,734.722,55.846C724.721,37.63,708.98,20.471,688.204,20.926C667.937,21.37,654.716,39.971,645.085,57.809C636.065,74.516,631.273,93.691,639.744,110.682C649.145,129.539,667.134,144.149,688.204,144.297" fill="rgba(13, 193, 26, 0.81)" class="triangle-float2"></path><path d="M465.54240753058156 286.8739145013768L570.0348051341016 272.18846572212396 555.3493563548489 167.69606811860393 450.8569587513287 182.38151689785673z" fill="rgba(13, 193, 26, 0.81)" class="triangle-float2"></path><path d="M562.1690405100632 135.18834991031002L662.3745616286528 143.95519703089417 671.1414087492369 43.74967591230448 570.9358876306472 34.98282879172035z" fill="rgba(13, 193, 26, 0.81)" class="triangle-float3"></path><path d="M643.2133494291567 227.51546920435987L548.4001564342502 212.49853469647934 628.1964149212762 322.3286621992664z" fill="rgba(13, 193, 26, 0.81)" class="triangle-float3"></path><path d="M133.3313468057151 131.65992345547704L185.49526191189256 159.39596910982024 213.23130756623576 107.23205400364282 161.0673924600583 79.4960083492996z" fill="rgba(13, 193, 26, 0.81)" class="triangle-float1"></path><path d="M433.48 291.69 a64.44 64.44 0 1 0 128.88 0 a64.44 64.44 0 1 0 -128.88 0z" fill="rgba(13, 193, 26, 0.81)" class="triangle-float3"></path><path d="M348.61840668191206 218.18482604897406L440.4500500307575 267.1248939111439 438.862517447151 176.1752131087465z" fill="rgba(13, 193, 26, 0.81)" class="triangle-float2"></path><path d="M705.7602995933748 119.97707269096031L660.0934341553244 61.526150405040305 601.6425118694044 107.19301584309078 647.3093773074548 165.6439381290108z" fill="rgba(13, 193, 26, 0.81)" class="triangle-float3"></path><path d="M498.63 199.92 a102.65 102.65 0 1 0 205.3 0 a102.65 102.65 0 1 0 -205.3 0z" fill="rgba(13, 193, 26, 0.81)" class="triangle-float1"></path><path d="M464.93 263.94 a64.66 64.66 0 1 0 129.32 0 a64.66 64.66 0 1 0 -129.32 0z" fill="rgba(13, 193, 26, 0.81)" class="triangle-float3"></path><path d="M262.34 8.07 a66.87 66.87 0 1 0 133.74 0 a66.87 66.87 0 1 0 -133.74 0z" fill="rgba(13, 193, 26, 0.81)" class="triangle-float2"></path><path d="M4.46 329.85 a113.57 113.57 0 1 0 227.14 0 a113.57 113.57 0 1 0 -227.14 0z" fill="rgba(13, 193, 26, 0.81)" class="triangle-float2"></path><path d="M48.67220042496909 282.91968322045545L100.12456400969332 332.6066531715158 149.81153396075365 281.1542895867916 98.35917037602945 231.46731963573123z" fill="rgba(13, 193, 26, 0.81)" class="triangle-float2"></path><path d="M195.0748472322741 247.50420930142954L105.82914520058482 278.23396887836174 136.55890477751703 367.479670910051 225.8046068092063 336.7499113331188z" fill="rgba(13, 193, 26, 0.81)" class="triangle-float2"></path><path d="M80.793,246.339C113.895,245.123,146.451,233.478,163.959,205.359C182.469,175.631,185.69,137.203,167.309,107.394C149.672,78.791,114.345,68.619,80.793,70.485C50.583,72.165,26.29,91.012,9.482,116.171C-10.062,145.424,-30.577,181.03,-13.674,211.884C3.587,243.391,44.892,247.658,80.793,246.339" fill="rgba(13, 193, 26, 0.81)" class="triangle-float1"></path><path d="M226.63349964258413 65.72267169804027L143.03584288319 2.727318867895576 80.04049005304529 86.3249756272897 163.63814681243943 149.3203284574344z" fill="rgba(13, 193, 26, 0.81)" class="triangle-float2"></path></g><defs><mask id="SvgjsMask1064"><rect width="720" height="360" fill="#ffffff"></rect></mask><style>
            @keyframes float1 {
                0%{transform: translate(0, 0)}
                50%{transform: translate(-10px, 0)}
                100%{transform: translate(0, 0)}
            }

            .triangle-float1 {
                animation: float1 5s infinite;
            }

            @keyframes float2 {
                0%{transform: translate(0, 0)}
                50%{transform: translate(-5px, -5px)}
                100%{transform: translate(0, 0)}
            }

            .triangle-float2 {
                animation: float2 4s infinite;
            }

            @keyframes float3 {
                0%{transform: translate(0, 0)}
                50%{transform: translate(0, -10px)}
                100%{transform: translate(0, 0)}
            }

            .triangle-float3 {
                animation: float3 6s infinite;
            }
        </style></defs></svg>