<svg xmlns="http://www.w3.org/2000/svg" version="1.1" xmlns:xlink="http://www.w3.org/1999/xlink" xmlns:svgjs="http://svgjs.com/svgjs" width="1440" height="660" preserveAspectRatio="none" viewBox="0 0 1440 660"><g mask="url(&quot;#SvgjsMask1024&quot;)" fill="none"><path d="M-49.2 508.11L-49.2 508.11" stroke="rgba(23, 66, 154, 1)" stroke-width="1.5"></path><path d="M-49.2 508.11L68.67 517.48" stroke="rgba(23, 66, 154, 1)" stroke-width="1.5"></path><path d="M-49.2 508.11L-82.91 676.77" stroke="rgba(23, 66, 154, 1)" stroke-width="1.5"></path><path d="M-82.91 676.77L-82.91 676.77" stroke="rgba(23, 66, 154, 1)" stroke-width="1.5"></path><path d="M-82.91 676.77L64.65 694.27" stroke="rgba(23, 66, 154, 1)" stroke-width="1.5"></path><path d="M-47.07 828.29L-47.07 828.29" stroke="rgba(23, 66, 154, 1)" stroke-width="1.5"></path><path d="M-47.07 828.29L79.29 839.29" stroke="rgba(23, 66, 154, 1)" stroke-width="1.5"></path><path d="M-47.07 828.29L-82.91 676.77" stroke="rgba(23, 66, 154, 1)" stroke-width="1.5"></path><path d="M-47.07 828.29L64.65 694.27" stroke="rgba(23, 66, 154, 1)" stroke-width="1.5"></path><path d="M68.67 517.48L68.67 517.48" stroke="rgba(23, 66, 154, 1)" stroke-width="1.5"></path><path d="M68.67 517.48L193.69 524.54" stroke="rgba(23, 66, 154, 1)" stroke-width="1.5"></path><path d="M68.67 517.48L64.65 694.27" stroke="rgba(23, 66, 154, 1)" stroke-width="1.5"></path><path d="M68.67 517.48L-82.91 676.77" stroke="rgba(23, 66, 154, 1)" stroke-width="1.5"></path><path d="M68.67 517.48L239.35 687.45" stroke="rgba(23, 66, 154, 1)" stroke-width="1.5"></path><path d="M68.67 517.48L369.61 553.92" stroke="rgba(23, 66, 154, 1)" stroke-width="1.5"></path><path d="M64.65 694.27L64.65 694.27" stroke="rgba(23, 66, 154, 1)" stroke-width="1.5"></path><path d="M64.65 694.27L79.29 839.29" stroke="rgba(23, 66, 154, 1)" stroke-width="1.5"></path><path d="M64.65 694.27L239.35 687.45" stroke="rgba(23, 66, 154, 1)" stroke-width="1.5"></path><path d="M79.29 839.29L79.29 839.29" stroke="rgba(23, 66, 154, 1)" stroke-width="1.5"></path><path d="M79.29 839.29L208.84 806.92" stroke="rgba(23, 66, 154, 1)" stroke-width="1.5"></path><path d="M79.29 839.29L239.35 687.45" stroke="rgba(23, 66, 154, 1)" stroke-width="1.5"></path><path d="M79.29 839.29L-82.91 676.77" stroke="rgba(23, 66, 154, 1)" stroke-width="1.5"></path><path d="M79.29 839.29L351.31 814.04" stroke="rgba(23, 66, 154, 1)" stroke-width="1.5"></path><path d="M193.69 524.54L193.69 524.54" stroke="rgba(23, 66, 154, 1)" stroke-width="1.5"></path><path d="M193.69 524.54L239.35 687.45" stroke="rgba(23, 66, 154, 1)" stroke-width="1.5"></path><path d="M193.69 524.54L369.61 553.92" stroke="rgba(23, 66, 154, 1)" stroke-width="1.5"></path><path d="M193.69 524.54L64.65 694.27" stroke="rgba(23, 66, 154, 1)" stroke-width="1.5"></path><path d="M193.69 524.54L347.39 372.73" stroke="rgba(23, 66, 154, 1)" stroke-width="1.5"></path><path d="M239.35 687.45L239.35 687.45" stroke="rgba(23, 66, 154, 1)" stroke-width="1.5"></path><path d="M239.35 687.45L208.84 806.92" stroke="rgba(23, 66, 154, 1)" stroke-width="1.5"></path><path d="M239.35 687.45L351.31 814.04" stroke="rgba(23, 66, 154, 1)" stroke-width="1.5"></path><path d="M239.35 687.45L410.03 707.85" stroke="rgba(23, 66, 154, 1)" stroke-width="1.5"></path><path d="M208.84 806.92L208.84 806.92" stroke="rgba(23, 66, 154, 1)" stroke-width="1.5"></path><path d="M208.84 806.92L351.31 814.04" stroke="rgba(23, 66, 154, 1)" stroke-width="1.5"></path><path d="M208.84 806.92L64.65 694.27" stroke="rgba(23, 66, 154, 1)" stroke-width="1.5"></path><path d="M347.39 372.73L347.39 372.73" stroke="rgba(23, 66, 154, 1)" stroke-width="1.5"></path><path d="M347.39 372.73L369.61 553.92" stroke="rgba(23, 66, 154, 1)" stroke-width="1.5"></path><path d="M347.39 372.73L560.98 375.7" stroke="rgba(23, 66, 154, 1)" stroke-width="1.5"></path><path d="M369.61 553.92L369.61 553.92" stroke="rgba(23, 66, 154, 1)" stroke-width="1.5"></path><path d="M369.61 553.92L410.03 707.85" stroke="rgba(23, 66, 154, 1)" stroke-width="1.5"></path><path d="M369.61 553.92L239.35 687.45" stroke="rgba(23, 66, 154, 1)" stroke-width="1.5"></path><path d="M369.61 553.92L551.98 497.37" stroke="rgba(23, 66, 154, 1)" stroke-width="1.5"></path><path d="M369.61 553.92L551.07 666.48" stroke="rgba(23, 66, 154, 1)" stroke-width="1.5"></path><path d="M410.03 707.85L410.03 707.85" stroke="rgba(23, 66, 154, 1)" stroke-width="1.5"></path><path d="M410.03 707.85L351.31 814.04" stroke="rgba(23, 66, 154, 1)" stroke-width="1.5"></path><path d="M410.03 707.85L551.07 666.48" stroke="rgba(23, 66, 154, 1)" stroke-width="1.5"></path><path d="M410.03 707.85L499.84 826.07" stroke="rgba(23, 66, 154, 1)" stroke-width="1.5"></path><path d="M351.31 814.04L351.31 814.04" stroke="rgba(23, 66, 154, 1)" stroke-width="1.5"></path><path d="M351.31 814.04L499.84 826.07" stroke="rgba(23, 66, 154, 1)" stroke-width="1.5"></path><path d="M351.31 814.04L551.07 666.48" stroke="rgba(23, 66, 154, 1)" stroke-width="1.5"></path><path d="M351.31 814.04L369.61 553.92" stroke="rgba(23, 66, 154, 1)" stroke-width="1.5"></path><path d="M560.98 375.7L560.98 375.7" stroke="rgba(23, 66, 154, 1)" stroke-width="1.5"></path><path d="M560.98 375.7L642.64 401.18" stroke="rgba(23, 66, 154, 1)" stroke-width="1.5"></path><path d="M560.98 375.7L551.98 497.37" stroke="rgba(23, 66, 154, 1)" stroke-width="1.5"></path><path d="M560.98 375.7L705.46 490.42" stroke="rgba(23, 66, 154, 1)" stroke-width="1.5"></path><path d="M551.98 497.37L551.98 497.37" stroke="rgba(23, 66, 154, 1)" stroke-width="1.5"></path><path d="M551.98 497.37L642.64 401.18" stroke="rgba(23, 66, 154, 1)" stroke-width="1.5"></path><path d="M551.98 497.37L705.46 490.42" stroke="rgba(23, 66, 154, 1)" stroke-width="1.5"></path><path d="M551.07 666.48L551.07 666.48" stroke="rgba(23, 66, 154, 1)" stroke-width="1.5"></path><path d="M551.07 666.48L641.39 705.34" stroke="rgba(23, 66, 154, 1)" stroke-width="1.5"></path><path d="M551.07 666.48L499.84 826.07" stroke="rgba(23, 66, 154, 1)" stroke-width="1.5"></path><path d="M551.07 666.48L551.98 497.37" stroke="rgba(23, 66, 154, 1)" stroke-width="1.5"></path><path d="M551.07 666.48L705.46 490.42" stroke="rgba(23, 66, 154, 1)" stroke-width="1.5"></path><path d="M499.84 826.07L499.84 826.07" stroke="rgba(23, 66, 154, 1)" stroke-width="1.5"></path><path d="M642.64 401.18L642.64 401.18" stroke="rgba(23, 66, 154, 1)" stroke-width="1.5"></path><path d="M642.64 401.18L705.46 490.42" stroke="rgba(23, 66, 154, 1)" stroke-width="1.5"></path><path d="M642.64 401.18L823.39 494.79" stroke="rgba(23, 66, 154, 1)" stroke-width="1.5"></path><path d="M642.64 401.18L842.53 356.79" stroke="rgba(23, 66, 154, 1)" stroke-width="1.5"></path><path d="M642.64 401.18L810.49 261.81" stroke="rgba(23, 66, 154, 1)" stroke-width="1.5"></path><path d="M705.46 490.42L705.46 490.42" stroke="rgba(23, 66, 154, 1)" stroke-width="1.5"></path><path d="M705.46 490.42L823.39 494.79" stroke="rgba(23, 66, 154, 1)" stroke-width="1.5"></path><path d="M641.39 705.34L641.39 705.34" stroke="rgba(23, 66, 154, 1)" stroke-width="1.5"></path><path d="M641.39 705.34L806.3 699.08" stroke="rgba(23, 66, 154, 1)" stroke-width="1.5"></path><path d="M641.39 705.34L499.84 826.07" stroke="rgba(23, 66, 154, 1)" stroke-width="1.5"></path><path d="M860.1 44.37L860.1 44.37" stroke="rgba(23, 66, 154, 1)" stroke-width="1.5"></path><path d="M860.1 44.37L991.53 108.6" stroke="rgba(23, 66, 154, 1)" stroke-width="1.5"></path><path d="M860.1 44.37L975.12 -64.22" stroke="rgba(23, 66, 154, 1)" stroke-width="1.5"></path><path d="M860.1 44.37L810.49 261.81" stroke="rgba(23, 66, 154, 1)" stroke-width="1.5"></path><path d="M860.1 44.37L953.31 259.02" stroke="rgba(23, 66, 154, 1)" stroke-width="1.5"></path><path d="M810.49 261.81L810.49 261.81" stroke="rgba(23, 66, 154, 1)" stroke-width="1.5"></path><path d="M810.49 261.81L842.53 356.79" stroke="rgba(23, 66, 154, 1)" stroke-width="1.5"></path><path d="M810.49 261.81L953.31 259.02" stroke="rgba(23, 66, 154, 1)" stroke-width="1.5"></path><path d="M810.49 261.81L945.43 403.73" stroke="rgba(23, 66, 154, 1)" stroke-width="1.5"></path><path d="M842.53 356.79L842.53 356.79" stroke="rgba(23, 66, 154, 1)" stroke-width="1.5"></path><path d="M842.53 356.79L945.43 403.73" stroke="rgba(23, 66, 154, 1)" stroke-width="1.5"></path><path d="M842.53 356.79L823.39 494.79" stroke="rgba(23, 66, 154, 1)" stroke-width="1.5"></path><path d="M842.53 356.79L953.31 259.02" stroke="rgba(23, 66, 154, 1)" stroke-width="1.5"></path><path d="M842.53 356.79L705.46 490.42" stroke="rgba(23, 66, 154, 1)" stroke-width="1.5"></path><path d="M823.39 494.79L823.39 494.79" stroke="rgba(23, 66, 154, 1)" stroke-width="1.5"></path><path d="M806.3 699.08L806.3 699.08" stroke="rgba(23, 66, 154, 1)" stroke-width="1.5"></path><path d="M806.3 699.08L961.96 671.91" stroke="rgba(23, 66, 154, 1)" stroke-width="1.5"></path><path d="M806.3 699.08L809.36 858.68" stroke="rgba(23, 66, 154, 1)" stroke-width="1.5"></path><path d="M806.3 699.08L823.39 494.79" stroke="rgba(23, 66, 154, 1)" stroke-width="1.5"></path><path d="M806.3 699.08L962.76 853.06" stroke="rgba(23, 66, 154, 1)" stroke-width="1.5"></path><path d="M809.36 858.68L809.36 858.68" stroke="rgba(23, 66, 154, 1)" stroke-width="1.5"></path><path d="M809.36 858.68L962.76 853.06" stroke="rgba(23, 66, 154, 1)" stroke-width="1.5"></path><path d="M975.12 -64.22L975.12 -64.22" stroke="rgba(23, 66, 154, 1)" stroke-width="1.5"></path><path d="M975.12 -64.22L1136.06 -52.96" stroke="rgba(23, 66, 154, 1)" stroke-width="1.5"></path><path d="M975.12 -64.22L991.53 108.6" stroke="rgba(23, 66, 154, 1)" stroke-width="1.5"></path><path d="M975.12 -64.22L1116.6 53.4" stroke="rgba(23, 66, 154, 1)" stroke-width="1.5"></path><path d="M991.53 108.6L991.53 108.6" stroke="rgba(23, 66, 154, 1)" stroke-width="1.5"></path><path d="M991.53 108.6L1116.6 53.4" stroke="rgba(23, 66, 154, 1)" stroke-width="1.5"></path><path d="M991.53 108.6L953.31 259.02" stroke="rgba(23, 66, 154, 1)" stroke-width="1.5"></path><path d="M953.31 259.02L953.31 259.02" stroke="rgba(23, 66, 154, 1)" stroke-width="1.5"></path><path d="M953.31 259.02L945.43 403.73" stroke="rgba(23, 66, 154, 1)" stroke-width="1.5"></path><path d="M953.31 259.02L1120.11 204.93" stroke="rgba(23, 66, 154, 1)" stroke-width="1.5"></path><path d="M953.31 259.02L1129.92 364.38" stroke="rgba(23, 66, 154, 1)" stroke-width="1.5"></path><path d="M945.43 403.73L945.43 403.73" stroke="rgba(23, 66, 154, 1)" stroke-width="1.5"></path><path d="M945.43 403.73L1011.08 506.28" stroke="rgba(23, 66, 154, 1)" stroke-width="1.5"></path><path d="M945.43 403.73L823.39 494.79" stroke="rgba(23, 66, 154, 1)" stroke-width="1.5"></path><path d="M1011.08 506.28L1011.08 506.28" stroke="rgba(23, 66, 154, 1)" stroke-width="1.5"></path><path d="M1011.08 506.28L961.96 671.91" stroke="rgba(23, 66, 154, 1)" stroke-width="1.5"></path><path d="M1011.08 506.28L1129.92 364.38" stroke="rgba(23, 66, 154, 1)" stroke-width="1.5"></path><path d="M1011.08 506.28L1092.33 673.85" stroke="rgba(23, 66, 154, 1)" stroke-width="1.5"></path><path d="M961.96 671.91L961.96 671.91" stroke="rgba(23, 66, 154, 1)" stroke-width="1.5"></path><path d="M961.96 671.91L1092.33 673.85" stroke="rgba(23, 66, 154, 1)" stroke-width="1.5"></path><path d="M961.96 671.91L962.76 853.06" stroke="rgba(23, 66, 154, 1)" stroke-width="1.5"></path><path d="M961.96 671.91L1101.1 797.09" stroke="rgba(23, 66, 154, 1)" stroke-width="1.5"></path><path d="M961.96 671.91L823.39 494.79" stroke="rgba(23, 66, 154, 1)" stroke-width="1.5"></path><path d="M962.76 853.06L962.76 853.06" stroke="rgba(23, 66, 154, 1)" stroke-width="1.5"></path><path d="M962.76 853.06L1101.1 797.09" stroke="rgba(23, 66, 154, 1)" stroke-width="1.5"></path><path d="M962.76 853.06L1092.33 673.85" stroke="rgba(23, 66, 154, 1)" stroke-width="1.5"></path><path d="M962.76 853.06L1272.55 842.83" stroke="rgba(23, 66, 154, 1)" stroke-width="1.5"></path><path d="M1136.06 -52.96L1136.06 -52.96" stroke="rgba(23, 66, 154, 1)" stroke-width="1.5"></path><path d="M1136.06 -52.96L1116.6 53.4" stroke="rgba(23, 66, 154, 1)" stroke-width="1.5"></path><path d="M1136.06 -52.96L1283.01 -48.79" stroke="rgba(23, 66, 154, 1)" stroke-width="1.5"></path><path d="M1136.06 -52.96L1267.53 100.91" stroke="rgba(23, 66, 154, 1)" stroke-width="1.5"></path><path d="M1136.06 -52.96L991.53 108.6" stroke="rgba(23, 66, 154, 1)" stroke-width="1.5"></path><path d="M1116.6 53.4L1116.6 53.4" stroke="rgba(23, 66, 154, 1)" stroke-width="1.5"></path><path d="M1116.6 53.4L1120.11 204.93" stroke="rgba(23, 66, 154, 1)" stroke-width="1.5"></path><path d="M1116.6 53.4L1267.53 100.91" stroke="rgba(23, 66, 154, 1)" stroke-width="1.5"></path><path d="M1116.6 53.4L1283.01 -48.79" stroke="rgba(23, 66, 154, 1)" stroke-width="1.5"></path><path d="M1120.11 204.93L1120.11 204.93" stroke="rgba(23, 66, 154, 1)" stroke-width="1.5"></path><path d="M1120.11 204.93L1129.92 364.38" stroke="rgba(23, 66, 154, 1)" stroke-width="1.5"></path><path d="M1120.11 204.93L991.53 108.6" stroke="rgba(23, 66, 154, 1)" stroke-width="1.5"></path><path d="M1120.11 204.93L1283.03 231.1" stroke="rgba(23, 66, 154, 1)" stroke-width="1.5"></path><path d="M1120.11 204.93L1267.53 100.91" stroke="rgba(23, 66, 154, 1)" stroke-width="1.5"></path><path d="M1129.92 364.38L1129.92 364.38" stroke="rgba(23, 66, 154, 1)" stroke-width="1.5"></path><path d="M1129.92 364.38L1312.47 363.86" stroke="rgba(23, 66, 154, 1)" stroke-width="1.5"></path><path d="M1129.92 364.38L945.43 403.73" stroke="rgba(23, 66, 154, 1)" stroke-width="1.5"></path><path d="M1129.92 364.38L1283.03 231.1" stroke="rgba(23, 66, 154, 1)" stroke-width="1.5"></path><path d="M1092.33 673.85L1092.33 673.85" stroke="rgba(23, 66, 154, 1)" stroke-width="1.5"></path><path d="M1092.33 673.85L1101.1 797.09" stroke="rgba(23, 66, 154, 1)" stroke-width="1.5"></path><path d="M1101.1 797.09L1101.1 797.09" stroke="rgba(23, 66, 154, 1)" stroke-width="1.5"></path><path d="M1283.01 -48.79L1283.01 -48.79" stroke="rgba(23, 66, 154, 1)" stroke-width="1.5"></path><path d="M1283.01 -48.79L1411.6 -58.86" stroke="rgba(23, 66, 154, 1)" stroke-width="1.5"></path><path d="M1267.53 100.91L1267.53 100.91" stroke="rgba(23, 66, 154, 1)" stroke-width="1.5"></path><path d="M1267.53 100.91L1283.03 231.1" stroke="rgba(23, 66, 154, 1)" stroke-width="1.5"></path><path d="M1267.53 100.91L1283.01 -48.79" stroke="rgba(23, 66, 154, 1)" stroke-width="1.5"></path><path d="M1283.03 231.1L1283.03 231.1" stroke="rgba(23, 66, 154, 1)" stroke-width="1.5"></path><path d="M1283.03 231.1L1312.47 363.86" stroke="rgba(23, 66, 154, 1)" stroke-width="1.5"></path><path d="M1283.03 231.1L1416.64 258.31" stroke="rgba(23, 66, 154, 1)" stroke-width="1.5"></path><path d="M1312.47 363.86L1312.47 363.86" stroke="rgba(23, 66, 154, 1)" stroke-width="1.5"></path><path d="M1312.47 363.86L1411.81 409.49" stroke="rgba(23, 66, 154, 1)" stroke-width="1.5"></path><path d="M1284.25 514.33L1284.25 514.33" stroke="rgba(23, 66, 154, 1)" stroke-width="1.5"></path><path d="M1284.25 514.33L1296.62 644.29" stroke="rgba(23, 66, 154, 1)" stroke-width="1.5"></path><path d="M1296.62 644.29L1296.62 644.29" stroke="rgba(23, 66, 154, 1)" stroke-width="1.5"></path><path d="M1296.62 644.29L1408.52 680.39" stroke="rgba(23, 66, 154, 1)" stroke-width="1.5"></path><path d="M1296.62 644.29L1444.53 521.06" stroke="rgba(23, 66, 154, 1)" stroke-width="1.5"></path><path d="M1296.62 644.29L1272.55 842.83" stroke="rgba(23, 66, 154, 1)" stroke-width="1.5"></path><path d="M1296.62 644.29L1092.33 673.85" stroke="rgba(23, 66, 154, 1)" stroke-width="1.5"></path><path d="M1272.55 842.83L1272.55 842.83" stroke="rgba(23, 66, 154, 1)" stroke-width="1.5"></path><path d="M1272.55 842.83L1389.47 834.75" stroke="rgba(23, 66, 154, 1)" stroke-width="1.5"></path><path d="M1272.55 842.83L1101.1 797.09" stroke="rgba(23, 66, 154, 1)" stroke-width="1.5"></path><path d="M1272.55 842.83L1408.52 680.39" stroke="rgba(23, 66, 154, 1)" stroke-width="1.5"></path><path d="M1272.55 842.83L1092.33 673.85" stroke="rgba(23, 66, 154, 1)" stroke-width="1.5"></path><path d="M1411.6 -58.86L1411.6 -58.86" stroke="rgba(23, 66, 154, 1)" stroke-width="1.5"></path><path d="M1411.6 -58.86L1421.61 85.57" stroke="rgba(23, 66, 154, 1)" stroke-width="1.5"></path><path d="M1411.6 -58.86L1561.06 64.08" stroke="rgba(23, 66, 154, 1)" stroke-width="1.5"></path><path d="M1411.6 -58.86L1602.65 -96.98" stroke="rgba(23, 66, 154, 1)" stroke-width="1.5"></path><path d="M1411.6 -58.86L1267.53 100.91" stroke="rgba(23, 66, 154, 1)" stroke-width="1.5"></path><path d="M1411.6 -58.86L1136.06 -52.96" stroke="rgba(23, 66, 154, 1)" stroke-width="1.5"></path><path d="M1421.61 85.57L1421.61 85.57" stroke="rgba(23, 66, 154, 1)" stroke-width="1.5"></path><path d="M1421.61 85.57L1561.06 64.08" stroke="rgba(23, 66, 154, 1)" stroke-width="1.5"></path><path d="M1416.64 258.31L1416.64 258.31" stroke="rgba(23, 66, 154, 1)" stroke-width="1.5"></path><path d="M1416.64 258.31L1312.47 363.86" stroke="rgba(23, 66, 154, 1)" stroke-width="1.5"></path><path d="M1416.64 258.31L1411.81 409.49" stroke="rgba(23, 66, 154, 1)" stroke-width="1.5"></path><path d="M1416.64 258.31L1550.59 359.3" stroke="rgba(23, 66, 154, 1)" stroke-width="1.5"></path><path d="M1416.64 258.31L1421.61 85.57" stroke="rgba(23, 66, 154, 1)" stroke-width="1.5"></path><path d="M1416.64 258.31L1594.47 257.97" stroke="rgba(23, 66, 154, 1)" stroke-width="1.5"></path><path d="M1411.81 409.49L1411.81 409.49" stroke="rgba(23, 66, 154, 1)" stroke-width="1.5"></path><path d="M1411.81 409.49L1444.53 521.06" stroke="rgba(23, 66, 154, 1)" stroke-width="1.5"></path><path d="M1444.53 521.06L1444.53 521.06" stroke="rgba(23, 66, 154, 1)" stroke-width="1.5"></path><path d="M1444.53 521.06L1558.25 532.6" stroke="rgba(23, 66, 154, 1)" stroke-width="1.5"></path><path d="M1444.53 521.06L1284.25 514.33" stroke="rgba(23, 66, 154, 1)" stroke-width="1.5"></path><path d="M1444.53 521.06L1408.52 680.39" stroke="rgba(23, 66, 154, 1)" stroke-width="1.5"></path><path d="M1444.53 521.06L1568.62 663.37" stroke="rgba(23, 66, 154, 1)" stroke-width="1.5"></path><path d="M1408.52 680.39L1408.52 680.39" stroke="rgba(23, 66, 154, 1)" stroke-width="1.5"></path><path d="M1408.52 680.39L1389.47 834.75" stroke="rgba(23, 66, 154, 1)" stroke-width="1.5"></path><path d="M1408.52 680.39L1568.62 663.37" stroke="rgba(23, 66, 154, 1)" stroke-width="1.5"></path><path d="M1389.47 834.75L1389.47 834.75" stroke="rgba(23, 66, 154, 1)" stroke-width="1.5"></path><path d="M1389.47 834.75L1541.76 811.41" stroke="rgba(23, 66, 154, 1)" stroke-width="1.5"></path><path d="M1602.65 -96.98L1602.65 -96.98" stroke="rgba(23, 66, 154, 1)" stroke-width="1.5"></path><path d="M1602.65 -96.98L1561.06 64.08" stroke="rgba(23, 66, 154, 1)" stroke-width="1.5"></path><path d="M1602.65 -96.98L1421.61 85.57" stroke="rgba(23, 66, 154, 1)" stroke-width="1.5"></path><path d="M1602.65 -96.98L1283.01 -48.79" stroke="rgba(23, 66, 154, 1)" stroke-width="1.5"></path><path d="M1602.65 -96.98L1594.47 257.97" stroke="rgba(23, 66, 154, 1)" stroke-width="1.5"></path><path d="M1602.65 -96.98L1267.53 100.91" stroke="rgba(23, 66, 154, 1)" stroke-width="1.5"></path><path d="M1561.06 64.08L1561.06 64.08" stroke="rgba(23, 66, 154, 1)" stroke-width="1.5"></path><path d="M1561.06 64.08L1594.47 257.97" stroke="rgba(23, 66, 154, 1)" stroke-width="1.5"></path><path d="M1561.06 64.08L1416.64 258.31" stroke="rgba(23, 66, 154, 1)" stroke-width="1.5"></path><path d="M1594.47 257.97L1594.47 257.97" stroke="rgba(23, 66, 154, 1)" stroke-width="1.5"></path><path d="M1594.47 257.97L1550.59 359.3" stroke="rgba(23, 66, 154, 1)" stroke-width="1.5"></path><path d="M1594.47 257.97L1411.81 409.49" stroke="rgba(23, 66, 154, 1)" stroke-width="1.5"></path><path d="M1594.47 257.97L1421.61 85.57" stroke="rgba(23, 66, 154, 1)" stroke-width="1.5"></path><path d="M1550.59 359.3L1550.59 359.3" stroke="rgba(23, 66, 154, 1)" stroke-width="1.5"></path><path d="M1550.59 359.3L1411.81 409.49" stroke="rgba(23, 66, 154, 1)" stroke-width="1.5"></path><path d="M1558.25 532.6L1558.25 532.6" stroke="rgba(23, 66, 154, 1)" stroke-width="1.5"></path><path d="M1558.25 532.6L1568.62 663.37" stroke="rgba(23, 66, 154, 1)" stroke-width="1.5"></path><path d="M1558.25 532.6L1550.59 359.3" stroke="rgba(23, 66, 154, 1)" stroke-width="1.5"></path><path d="M1558.25 532.6L1411.81 409.49" stroke="rgba(23, 66, 154, 1)" stroke-width="1.5"></path><path d="M1558.25 532.6L1408.52 680.39" stroke="rgba(23, 66, 154, 1)" stroke-width="1.5"></path><path d="M1568.62 663.37L1568.62 663.37" stroke="rgba(23, 66, 154, 1)" stroke-width="1.5"></path><path d="M1568.62 663.37L1541.76 811.41" stroke="rgba(23, 66, 154, 1)" stroke-width="1.5"></path><path d="M1541.76 811.41L1541.76 811.41" stroke="rgba(23, 66, 154, 1)" stroke-width="1.5"></path><path d="M1541.76 811.41L1408.52 680.39" stroke="rgba(23, 66, 154, 1)" stroke-width="1.5"></path><path d="M1541.76 811.41L1272.55 842.83" stroke="rgba(23, 66, 154, 1)" stroke-width="1.5"></path><path d="M1541.76 811.41L1558.25 532.6" stroke="rgba(23, 66, 154, 1)" stroke-width="1.5"></path><path d="M1541.76 811.41L1296.62 644.29" stroke="rgba(23, 66, 154, 1)" stroke-width="1.5"></path><circle r="5" cx="-49.2" cy="508.11" fill="rgba(23, 66, 154, 1)"></circle><circle r="5" cx="-82.91" cy="676.77" fill="rgba(23, 66, 154, 1)"></circle><circle r="5" cx="-47.07" cy="828.29" fill="rgba(23, 66, 154, 1)"></circle><circle r="5" cx="68.67" cy="517.48" fill="rgba(23, 66, 154, 1)"></circle><circle r="5" cx="64.65" cy="694.27" fill="rgba(23, 66, 154, 1)"></circle><circle r="5" cx="79.29" cy="839.29" fill="rgba(23, 66, 154, 1)"></circle><circle r="5" cx="193.69" cy="524.54" fill="rgba(23, 66, 154, 1)"></circle><circle r="5" cx="239.35" cy="687.45" fill="rgba(23, 66, 154, 1)"></circle><circle r="5" cx="208.84" cy="806.92" fill="rgba(23, 66, 154, 1)"></circle><circle r="5" cx="347.39" cy="372.73" fill="rgba(23, 66, 154, 1)"></circle><circle r="5" cx="369.61" cy="553.92" fill="rgba(23, 66, 154, 1)"></circle><circle r="5" cx="410.03" cy="707.85" fill="rgba(23, 66, 154, 1)"></circle><circle r="5" cx="351.31" cy="814.04" fill="rgba(23, 66, 154, 1)"></circle><circle r="5" cx="560.98" cy="375.7" fill="rgba(23, 66, 154, 1)"></circle><circle r="5" cx="551.98" cy="497.37" fill="rgba(23, 66, 154, 1)"></circle><circle r="5" cx="551.07" cy="666.48" fill="rgba(23, 66, 154, 1)"></circle><circle r="5" cx="499.84" cy="826.07" fill="rgba(23, 66, 154, 1)"></circle><circle r="5" cx="642.64" cy="401.18" fill="rgba(23, 66, 154, 1)"></circle><circle r="5" cx="705.46" cy="490.42" fill="rgba(23, 66, 154, 1)"></circle><circle r="5" cx="641.39" cy="705.34" fill="rgba(23, 66, 154, 1)"></circle><circle r="5" cx="860.1" cy="44.37" fill="rgba(23, 66, 154, 1)"></circle><circle r="5" cx="810.49" cy="261.81" fill="rgba(23, 66, 154, 1)"></circle><circle r="5" cx="842.53" cy="356.79" fill="rgba(23, 66, 154, 1)"></circle><circle r="5" cx="823.39" cy="494.79" fill="rgba(23, 66, 154, 1)"></circle><circle r="5" cx="806.3" cy="699.08" fill="rgba(23, 66, 154, 1)"></circle><circle r="5" cx="809.36" cy="858.68" fill="rgba(23, 66, 154, 1)"></circle><circle r="5" cx="975.12" cy="-64.22" fill="rgba(23, 66, 154, 1)"></circle><circle r="5" cx="991.53" cy="108.6" fill="rgba(23, 66, 154, 1)"></circle><circle r="5" cx="953.31" cy="259.02" fill="rgba(23, 66, 154, 1)"></circle><circle r="5" cx="945.43" cy="403.73" fill="rgba(23, 66, 154, 1)"></circle><circle r="5" cx="1011.08" cy="506.28" fill="rgba(23, 66, 154, 1)"></circle><circle r="5" cx="961.96" cy="671.91" fill="rgba(23, 66, 154, 1)"></circle><circle r="5" cx="962.76" cy="853.06" fill="rgba(23, 66, 154, 1)"></circle><circle r="5" cx="1136.06" cy="-52.96" fill="rgba(23, 66, 154, 1)"></circle><circle r="5" cx="1116.6" cy="53.4" fill="rgba(23, 66, 154, 1)"></circle><circle r="5" cx="1120.11" cy="204.93" fill="rgba(23, 66, 154, 1)"></circle><circle r="5" cx="1129.92" cy="364.38" fill="rgba(23, 66, 154, 1)"></circle><circle r="5" cx="1092.33" cy="673.85" fill="rgba(23, 66, 154, 1)"></circle><circle r="5" cx="1101.1" cy="797.09" fill="rgba(23, 66, 154, 1)"></circle><circle r="5" cx="1283.01" cy="-48.79" fill="rgba(23, 66, 154, 1)"></circle><circle r="5" cx="1267.53" cy="100.91" fill="rgba(23, 66, 154, 1)"></circle><circle r="5" cx="1283.03" cy="231.1" fill="rgba(23, 66, 154, 1)"></circle><circle r="5" cx="1312.47" cy="363.86" fill="rgba(23, 66, 154, 1)"></circle><circle r="5" cx="1284.25" cy="514.33" fill="rgba(23, 66, 154, 1)"></circle><circle r="5" cx="1296.62" cy="644.29" fill="rgba(23, 66, 154, 1)"></circle><circle r="5" cx="1272.55" cy="842.83" fill="rgba(23, 66, 154, 1)"></circle><circle r="5" cx="1411.6" cy="-58.86" fill="rgba(23, 66, 154, 1)"></circle><circle r="5" cx="1421.61" cy="85.57" fill="rgba(23, 66, 154, 1)"></circle><circle r="5" cx="1416.64" cy="258.31" fill="rgba(23, 66, 154, 1)"></circle><circle r="5" cx="1411.81" cy="409.49" fill="rgba(23, 66, 154, 1)"></circle><circle r="5" cx="1444.53" cy="521.06" fill="rgba(23, 66, 154, 1)"></circle><circle r="5" cx="1408.52" cy="680.39" fill="rgba(23, 66, 154, 1)"></circle><circle r="5" cx="1389.47" cy="834.75" fill="rgba(23, 66, 154, 1)"></circle><circle r="5" cx="1602.65" cy="-96.98" fill="rgba(23, 66, 154, 1)"></circle><circle r="5" cx="1561.06" cy="64.08" fill="rgba(23, 66, 154, 1)"></circle><circle r="5" cx="1594.47" cy="257.97" fill="rgba(23, 66, 154, 1)"></circle><circle r="5" cx="1550.59" cy="359.3" fill="rgba(23, 66, 154, 1)"></circle><circle r="5" cx="1558.25" cy="532.6" fill="rgba(23, 66, 154, 1)"></circle><circle r="5" cx="1568.62" cy="663.37" fill="rgba(23, 66, 154, 1)"></circle><circle r="5" cx="1541.76" cy="811.41" fill="rgba(23, 66, 154, 1)"></circle><path d="M54.45 708.83L54.45 708.83" stroke="hsl(228.5, 86.2%, 55.6%)" stroke-width="1.5"></path><path d="M54.45 708.83L106.67 818.3" stroke="hsl(228.5, 86.2%, 55.6%)" stroke-width="1.5"></path><path d="M54.45 708.83L188.08 672.57" stroke="hsl(228.5, 86.2%, 55.6%)" stroke-width="1.5"></path><path d="M106.67 818.3L106.67 818.3" stroke="hsl(228.5, 86.2%, 55.6%)" stroke-width="1.5"></path><path d="M106.67 818.3L-54.71 801.48" stroke="hsl(228.5, 86.2%, 55.6%)" stroke-width="1.5"></path><path d="M106.67 818.3L188.08 672.57" stroke="hsl(228.5, 86.2%, 55.6%)" stroke-width="1.5"></path><path d="M106.67 818.3L-82.92 657.49" stroke="hsl(228.5, 86.2%, 55.6%)" stroke-width="1.5"></path><path d="M106.67 818.3L64.02 553.91" stroke="hsl(228.5, 86.2%, 55.6%)" stroke-width="1.5"></path><path d="M106.67 818.3L376.02 829.63" stroke="hsl(228.5, 86.2%, 55.6%)" stroke-width="1.5"></path><path d="M188.08 672.57L188.08 672.57" stroke="hsl(228.5, 86.2%, 55.6%)" stroke-width="1.5"></path><path d="M188.08 672.57L64.02 553.91" stroke="hsl(228.5, 86.2%, 55.6%)" stroke-width="1.5"></path><path d="M188.08 672.57L373.41 656.8" stroke="hsl(228.5, 86.2%, 55.6%)" stroke-width="1.5"></path><path d="M1123.1 377.66L1123.1 377.66" stroke="hsl(228.5, 86.2%, 55.6%)" stroke-width="1.5"></path><path d="M1123.1 377.66L1149.72 238.8" stroke="hsl(228.5, 86.2%, 55.6%)" stroke-width="1.5"></path><path d="M1123.1 377.66L1088.34 533.33" stroke="hsl(228.5, 86.2%, 55.6%)" stroke-width="1.5"></path><path d="M1123.1 377.66L961.41 363.45" stroke="hsl(228.5, 86.2%, 55.6%)" stroke-width="1.5"></path><path d="M1267.19 212.21L1267.19 212.21" stroke="hsl(228.5, 86.2%, 55.6%)" stroke-width="1.5"></path><path d="M1267.19 212.21L1149.72 238.8" stroke="hsl(228.5, 86.2%, 55.6%)" stroke-width="1.5"></path><path d="M1267.19 212.21L1399.15 245.71" stroke="hsl(228.5, 86.2%, 55.6%)" stroke-width="1.5"></path><path d="M1267.19 212.21L1307.98 358.53" stroke="hsl(228.5, 86.2%, 55.6%)" stroke-width="1.5"></path><path d="M1267.19 212.21L1244.28 44.41" stroke="hsl(228.5, 86.2%, 55.6%)" stroke-width="1.5"></path><path d="M1267.19 212.21L1123.1 377.66" stroke="hsl(228.5, 86.2%, 55.6%)" stroke-width="1.5"></path><path d="M1267.19 212.21L1446.63 77.9" stroke="hsl(228.5, 86.2%, 55.6%)" stroke-width="1.5"></path><path d="M1248.53 701.95L1248.53 701.95" stroke="hsl(228.5, 86.2%, 55.6%)" stroke-width="1.5"></path><path d="M1248.53 701.95L1251.78 803.17" stroke="hsl(228.5, 86.2%, 55.6%)" stroke-width="1.5"></path><path d="M1248.53 701.95L1097.44 712.49" stroke="hsl(228.5, 86.2%, 55.6%)" stroke-width="1.5"></path><path d="M1248.53 701.95L1300.63 548.89" stroke="hsl(228.5, 86.2%, 55.6%)" stroke-width="1.5"></path><path d="M1248.53 701.95L1456.76 710.82" stroke="hsl(228.5, 86.2%, 55.6%)" stroke-width="1.5"></path><path d="M1248.53 701.95L1103.73 857.76" stroke="hsl(228.5, 86.2%, 55.6%)" stroke-width="1.5"></path><path d="M1407.39 -72.17L1407.39 -72.17" stroke="hsl(228.5, 86.2%, 55.6%)" stroke-width="1.5"></path><path d="M1407.39 -72.17L1273.48 -110.99" stroke="hsl(228.5, 86.2%, 55.6%)" stroke-width="1.5"></path><path d="M1407.39 -72.17L1446.63 77.9" stroke="hsl(228.5, 86.2%, 55.6%)" stroke-width="1.5"></path><path d="M1407.39 -72.17L1589.7 -43.17" stroke="hsl(228.5, 86.2%, 55.6%)" stroke-width="1.5"></path><path d="M1407.39 -72.17L1244.28 44.41" stroke="hsl(228.5, 86.2%, 55.6%)" stroke-width="1.5"></path><path d="M1407.39 -72.17L1558.02 106.3" stroke="hsl(228.5, 86.2%, 55.6%)" stroke-width="1.5"></path><path d="M1407.39 -72.17L1554.64 207.87" stroke="hsl(228.5, 86.2%, 55.6%)" stroke-width="1.5"></path><path d="M1399.15 245.71L1399.15 245.71" stroke="hsl(228.5, 86.2%, 55.6%)" stroke-width="1.5"></path><path d="M1399.15 245.71L1449.63 344.14" stroke="hsl(228.5, 86.2%, 55.6%)" stroke-width="1.5"></path><path d="M1399.15 245.71L1307.98 358.53" stroke="hsl(228.5, 86.2%, 55.6%)" stroke-width="1.5"></path><path d="M1399.15 245.71L1554.64 207.87" stroke="hsl(228.5, 86.2%, 55.6%)" stroke-width="1.5"></path><path d="M1399.15 245.71L1446.63 77.9" stroke="hsl(228.5, 86.2%, 55.6%)" stroke-width="1.5"></path><path d="M1419.31 521.95L1419.31 521.95" stroke="hsl(228.5, 86.2%, 55.6%)" stroke-width="1.5"></path><path d="M1419.31 521.95L1300.63 548.89" stroke="hsl(228.5, 86.2%, 55.6%)" stroke-width="1.5"></path><path d="M1419.31 521.95L1540.22 492.22" stroke="hsl(228.5, 86.2%, 55.6%)" stroke-width="1.5"></path><path d="M1455.15 808.68L1455.15 808.68" stroke="hsl(228.5, 86.2%, 55.6%)" stroke-width="1.5"></path><path d="M1455.15 808.68L1456.76 710.82" stroke="hsl(228.5, 86.2%, 55.6%)" stroke-width="1.5"></path><path d="M1455.15 808.68L1593.18 847.05" stroke="hsl(228.5, 86.2%, 55.6%)" stroke-width="1.5"></path><path d="M1455.15 808.68L1611.5 703.91" stroke="hsl(228.5, 86.2%, 55.6%)" stroke-width="1.5"></path><path d="M1455.15 808.68L1251.78 803.17" stroke="hsl(228.5, 86.2%, 55.6%)" stroke-width="1.5"></path><path d="M1455.15 808.68L1248.53 701.95" stroke="hsl(228.5, 86.2%, 55.6%)" stroke-width="1.5"></path><path d="M1455.15 808.68L1419.31 521.95" stroke="hsl(228.5, 86.2%, 55.6%)" stroke-width="1.5"></path><path d="M1542.79 379.4L1542.79 379.4" stroke="hsl(228.5, 86.2%, 55.6%)" stroke-width="1.5"></path><path d="M1542.79 379.4L1449.63 344.14" stroke="hsl(228.5, 86.2%, 55.6%)" stroke-width="1.5"></path><path d="M1542.79 379.4L1540.22 492.22" stroke="hsl(228.5, 86.2%, 55.6%)" stroke-width="1.5"></path><path d="M1542.79 379.4L1554.64 207.87" stroke="hsl(228.5, 86.2%, 55.6%)" stroke-width="1.5"></path><path d="M1540.22 492.22L1540.22 492.22" stroke="hsl(228.5, 86.2%, 55.6%)" stroke-width="1.5"></path><path d="M1540.22 492.22L1449.63 344.14" stroke="hsl(228.5, 86.2%, 55.6%)" stroke-width="1.5"></path><path d="M1540.22 492.22L1611.5 703.91" stroke="hsl(228.5, 86.2%, 55.6%)" stroke-width="1.5"></path><path d="M1611.5 703.91L1611.5 703.91" stroke="hsl(228.5, 86.2%, 55.6%)" stroke-width="1.5"></path><path d="M1611.5 703.91L1593.18 847.05" stroke="hsl(228.5, 86.2%, 55.6%)" stroke-width="1.5"></path><path d="M1611.5 703.91L1456.76 710.82" stroke="hsl(228.5, 86.2%, 55.6%)" stroke-width="1.5"></path><path d="M-82.92 657.49L-82.92 657.49" stroke="hsl(228.5, 86.2%, 55.6%)" stroke-width="1.5"></path><path d="M-82.92 657.49L54.45 708.83" stroke="hsl(228.5, 86.2%, 55.6%)" stroke-width="1.5"></path><path d="M-54.71 801.48L-54.71 801.48" stroke="hsl(228.5, 86.2%, 55.6%)" stroke-width="1.5"></path><path d="M-54.71 801.48L54.45 708.83" stroke="hsl(228.5, 86.2%, 55.6%)" stroke-width="1.5"></path><path d="M-54.71 801.48L-82.92 657.49" stroke="hsl(228.5, 86.2%, 55.6%)" stroke-width="1.5"></path><path d="M-54.71 801.48L64.02 553.91" stroke="hsl(228.5, 86.2%, 55.6%)" stroke-width="1.5"></path><path d="M-54.71 801.48L188.08 672.57" stroke="hsl(228.5, 86.2%, 55.6%)" stroke-width="1.5"></path><path d="M-54.71 801.48L376.02 829.63" stroke="hsl(228.5, 86.2%, 55.6%)" stroke-width="1.5"></path><path d="M64.02 553.91L64.02 553.91" stroke="hsl(228.5, 86.2%, 55.6%)" stroke-width="1.5"></path><path d="M64.02 553.91L54.45 708.83" stroke="hsl(228.5, 86.2%, 55.6%)" stroke-width="1.5"></path><path d="M64.02 553.91L-82.92 657.49" stroke="hsl(228.5, 86.2%, 55.6%)" stroke-width="1.5"></path><path d="M389.35 530.52L389.35 530.52" stroke="hsl(228.5, 86.2%, 55.6%)" stroke-width="1.5"></path><path d="M389.35 530.52L498.37 499.05" stroke="hsl(228.5, 86.2%, 55.6%)" stroke-width="1.5"></path><path d="M389.35 530.52L373.41 656.8" stroke="hsl(228.5, 86.2%, 55.6%)" stroke-width="1.5"></path><path d="M373.41 656.8L373.41 656.8" stroke="hsl(228.5, 86.2%, 55.6%)" stroke-width="1.5"></path><path d="M373.41 656.8L376.02 829.63" stroke="hsl(228.5, 86.2%, 55.6%)" stroke-width="1.5"></path><path d="M376.02 829.63L376.02 829.63" stroke="hsl(228.5, 86.2%, 55.6%)" stroke-width="1.5"></path><path d="M376.02 829.63L528.3 844.89" stroke="hsl(228.5, 86.2%, 55.6%)" stroke-width="1.5"></path><path d="M376.02 829.63L188.08 672.57" stroke="hsl(228.5, 86.2%, 55.6%)" stroke-width="1.5"></path><path d="M376.02 829.63L389.35 530.52" stroke="hsl(228.5, 86.2%, 55.6%)" stroke-width="1.5"></path><path d="M498.37 499.05L498.37 499.05" stroke="hsl(228.5, 86.2%, 55.6%)" stroke-width="1.5"></path><path d="M498.37 499.05L698.2 514.61" stroke="hsl(228.5, 86.2%, 55.6%)" stroke-width="1.5"></path><path d="M498.37 499.05L373.41 656.8" stroke="hsl(228.5, 86.2%, 55.6%)" stroke-width="1.5"></path><path d="M498.37 499.05L673.97 702.43" stroke="hsl(228.5, 86.2%, 55.6%)" stroke-width="1.5"></path><path d="M528.3 844.89L528.3 844.89" stroke="hsl(228.5, 86.2%, 55.6%)" stroke-width="1.5"></path><path d="M528.3 844.89L687.62 804.23" stroke="hsl(228.5, 86.2%, 55.6%)" stroke-width="1.5"></path><path d="M528.3 844.89L673.97 702.43" stroke="hsl(228.5, 86.2%, 55.6%)" stroke-width="1.5"></path><path d="M698.2 514.61L698.2 514.61" stroke="hsl(228.5, 86.2%, 55.6%)" stroke-width="1.5"></path><path d="M698.2 514.61L844.54 544.56" stroke="hsl(228.5, 86.2%, 55.6%)" stroke-width="1.5"></path><path d="M698.2 514.61L673.97 702.43" stroke="hsl(228.5, 86.2%, 55.6%)" stroke-width="1.5"></path><path d="M698.2 514.61L823.99 659.06" stroke="hsl(228.5, 86.2%, 55.6%)" stroke-width="1.5"></path><path d="M673.97 702.43L673.97 702.43" stroke="hsl(228.5, 86.2%, 55.6%)" stroke-width="1.5"></path><path d="M673.97 702.43L687.62 804.23" stroke="hsl(228.5, 86.2%, 55.6%)" stroke-width="1.5"></path><path d="M673.97 702.43L823.99 659.06" stroke="hsl(228.5, 86.2%, 55.6%)" stroke-width="1.5"></path><path d="M673.97 702.43L812.59 797.02" stroke="hsl(228.5, 86.2%, 55.6%)" stroke-width="1.5"></path><path d="M687.62 804.23L687.62 804.23" stroke="hsl(228.5, 86.2%, 55.6%)" stroke-width="1.5"></path><path d="M687.62 804.23L812.59 797.02" stroke="hsl(228.5, 86.2%, 55.6%)" stroke-width="1.5"></path><path d="M844.54 544.56L844.54 544.56" stroke="hsl(228.5, 86.2%, 55.6%)" stroke-width="1.5"></path><path d="M844.54 544.56L823.99 659.06" stroke="hsl(228.5, 86.2%, 55.6%)" stroke-width="1.5"></path><path d="M844.54 544.56L973.46 646.38" stroke="hsl(228.5, 86.2%, 55.6%)" stroke-width="1.5"></path><path d="M823.99 659.06L823.99 659.06" stroke="hsl(228.5, 86.2%, 55.6%)" stroke-width="1.5"></path><path d="M823.99 659.06L812.59 797.02" stroke="hsl(228.5, 86.2%, 55.6%)" stroke-width="1.5"></path><path d="M812.59 797.02L812.59 797.02" stroke="hsl(228.5, 86.2%, 55.6%)" stroke-width="1.5"></path><path d="M961.41 363.45L961.41 363.45" stroke="hsl(228.5, 86.2%, 55.6%)" stroke-width="1.5"></path><path d="M961.41 363.45L1088.34 533.33" stroke="hsl(228.5, 86.2%, 55.6%)" stroke-width="1.5"></path><path d="M973.46 646.38L973.46 646.38" stroke="hsl(228.5, 86.2%, 55.6%)" stroke-width="1.5"></path><path d="M973.46 646.38L1097.44 712.49" stroke="hsl(228.5, 86.2%, 55.6%)" stroke-width="1.5"></path><path d="M973.46 646.38L823.99 659.06" stroke="hsl(228.5, 86.2%, 55.6%)" stroke-width="1.5"></path><path d="M973.46 646.38L1088.34 533.33" stroke="hsl(228.5, 86.2%, 55.6%)" stroke-width="1.5"></path><path d="M1009.86 856.93L1009.86 856.93" stroke="hsl(228.5, 86.2%, 55.6%)" stroke-width="1.5"></path><path d="M1009.86 856.93L1103.73 857.76" stroke="hsl(228.5, 86.2%, 55.6%)" stroke-width="1.5"></path><path d="M1009.86 856.93L1097.44 712.49" stroke="hsl(228.5, 86.2%, 55.6%)" stroke-width="1.5"></path><path d="M1009.86 856.93L812.59 797.02" stroke="hsl(228.5, 86.2%, 55.6%)" stroke-width="1.5"></path><path d="M1009.86 856.93L973.46 646.38" stroke="hsl(228.5, 86.2%, 55.6%)" stroke-width="1.5"></path><path d="M1009.86 856.93L1251.78 803.17" stroke="hsl(228.5, 86.2%, 55.6%)" stroke-width="1.5"></path><path d="M1149.72 238.8L1149.72 238.8" stroke="hsl(228.5, 86.2%, 55.6%)" stroke-width="1.5"></path><path d="M1149.72 238.8L1307.98 358.53" stroke="hsl(228.5, 86.2%, 55.6%)" stroke-width="1.5"></path><path d="M1149.72 238.8L1244.28 44.41" stroke="hsl(228.5, 86.2%, 55.6%)" stroke-width="1.5"></path><path d="M1149.72 238.8L961.41 363.45" stroke="hsl(228.5, 86.2%, 55.6%)" stroke-width="1.5"></path><path d="M1149.72 238.8L1399.15 245.71" stroke="hsl(228.5, 86.2%, 55.6%)" stroke-width="1.5"></path><path d="M1088.34 533.33L1088.34 533.33" stroke="hsl(228.5, 86.2%, 55.6%)" stroke-width="1.5"></path><path d="M1088.34 533.33L1097.44 712.49" stroke="hsl(228.5, 86.2%, 55.6%)" stroke-width="1.5"></path><path d="M1088.34 533.33L1300.63 548.89" stroke="hsl(228.5, 86.2%, 55.6%)" stroke-width="1.5"></path><path d="M1088.34 533.33L1248.53 701.95" stroke="hsl(228.5, 86.2%, 55.6%)" stroke-width="1.5"></path><path d="M1097.44 712.49L1097.44 712.49" stroke="hsl(228.5, 86.2%, 55.6%)" stroke-width="1.5"></path><path d="M1097.44 712.49L1103.73 857.76" stroke="hsl(228.5, 86.2%, 55.6%)" stroke-width="1.5"></path><path d="M1097.44 712.49L1251.78 803.17" stroke="hsl(228.5, 86.2%, 55.6%)" stroke-width="1.5"></path><path d="M1103.73 857.76L1103.73 857.76" stroke="hsl(228.5, 86.2%, 55.6%)" stroke-width="1.5"></path><path d="M1103.73 857.76L1251.78 803.17" stroke="hsl(228.5, 86.2%, 55.6%)" stroke-width="1.5"></path><path d="M1273.48 -110.99L1273.48 -110.99" stroke="hsl(228.5, 86.2%, 55.6%)" stroke-width="1.5"></path><path d="M1273.48 -110.99L1244.28 44.41" stroke="hsl(228.5, 86.2%, 55.6%)" stroke-width="1.5"></path><path d="M1273.48 -110.99L1446.63 77.9" stroke="hsl(228.5, 86.2%, 55.6%)" stroke-width="1.5"></path><path d="M1273.48 -110.99L1267.19 212.21" stroke="hsl(228.5, 86.2%, 55.6%)" stroke-width="1.5"></path><path d="M1273.48 -110.99L1589.7 -43.17" stroke="hsl(228.5, 86.2%, 55.6%)" stroke-width="1.5"></path><path d="M1244.28 44.41L1244.28 44.41" stroke="hsl(228.5, 86.2%, 55.6%)" stroke-width="1.5"></path><path d="M1244.28 44.41L1446.63 77.9" stroke="hsl(228.5, 86.2%, 55.6%)" stroke-width="1.5"></path><path d="M1244.28 44.41L1399.15 245.71" stroke="hsl(228.5, 86.2%, 55.6%)" stroke-width="1.5"></path><path d="M1307.98 358.53L1307.98 358.53" stroke="hsl(228.5, 86.2%, 55.6%)" stroke-width="1.5"></path><path d="M1307.98 358.53L1449.63 344.14" stroke="hsl(228.5, 86.2%, 55.6%)" stroke-width="1.5"></path><path d="M1300.63 548.89L1300.63 548.89" stroke="hsl(228.5, 86.2%, 55.6%)" stroke-width="1.5"></path><path d="M1300.63 548.89L1307.98 358.53" stroke="hsl(228.5, 86.2%, 55.6%)" stroke-width="1.5"></path><path d="M1251.78 803.17L1251.78 803.17" stroke="hsl(228.5, 86.2%, 55.6%)" stroke-width="1.5"></path><path d="M1251.78 803.17L1456.76 710.82" stroke="hsl(228.5, 86.2%, 55.6%)" stroke-width="1.5"></path><path d="M1446.63 77.9L1446.63 77.9" stroke="hsl(228.5, 86.2%, 55.6%)" stroke-width="1.5"></path><path d="M1446.63 77.9L1558.02 106.3" stroke="hsl(228.5, 86.2%, 55.6%)" stroke-width="1.5"></path><path d="M1446.63 77.9L1554.64 207.87" stroke="hsl(228.5, 86.2%, 55.6%)" stroke-width="1.5"></path><path d="M1446.63 77.9L1589.7 -43.17" stroke="hsl(228.5, 86.2%, 55.6%)" stroke-width="1.5"></path><path d="M1449.63 344.14L1449.63 344.14" stroke="hsl(228.5, 86.2%, 55.6%)" stroke-width="1.5"></path><path d="M1456.76 710.82L1456.76 710.82" stroke="hsl(228.5, 86.2%, 55.6%)" stroke-width="1.5"></path><path d="M1589.7 -43.17L1589.7 -43.17" stroke="hsl(228.5, 86.2%, 55.6%)" stroke-width="1.5"></path><path d="M1589.7 -43.17L1558.02 106.3" stroke="hsl(228.5, 86.2%, 55.6%)" stroke-width="1.5"></path><path d="M1558.02 106.3L1558.02 106.3" stroke="hsl(228.5, 86.2%, 55.6%)" stroke-width="1.5"></path><path d="M1558.02 106.3L1554.64 207.87" stroke="hsl(228.5, 86.2%, 55.6%)" stroke-width="1.5"></path><path d="M1558.02 106.3L1399.15 245.71" stroke="hsl(228.5, 86.2%, 55.6%)" stroke-width="1.5"></path><path d="M1554.64 207.87L1554.64 207.87" stroke="hsl(228.5, 86.2%, 55.6%)" stroke-width="1.5"></path><path d="M1593.18 847.05L1593.18 847.05" stroke="hsl(228.5, 86.2%, 55.6%)" stroke-width="1.5"></path><circle r="25" cx="54.45" cy="708.83" fill="url(#SvgjsRadialGradient1025)"></circle><circle r="25" cx="106.67" cy="818.3" fill="url(#SvgjsRadialGradient1025)"></circle><circle r="25" cx="188.08" cy="672.57" fill="url(#SvgjsRadialGradient1025)"></circle><circle r="25" cx="1123.1" cy="377.66" fill="url(#SvgjsRadialGradient1025)"></circle><circle r="25" cx="1267.19" cy="212.21" fill="url(#SvgjsRadialGradient1025)"></circle><circle r="25" cx="1248.53" cy="701.95" fill="url(#SvgjsRadialGradient1025)"></circle><circle r="25" cx="1407.39" cy="-72.17" fill="url(#SvgjsRadialGradient1025)"></circle><circle r="25" cx="1399.15" cy="245.71" fill="url(#SvgjsRadialGradient1025)"></circle><circle r="25" cx="1419.31" cy="521.95" fill="url(#SvgjsRadialGradient1025)"></circle><circle r="25" cx="1455.15" cy="808.68" fill="url(#SvgjsRadialGradient1025)"></circle><circle r="25" cx="1542.79" cy="379.4" fill="url(#SvgjsRadialGradient1025)"></circle><circle r="25" cx="1540.22" cy="492.22" fill="url(#SvgjsRadialGradient1025)"></circle><circle r="25" cx="1611.5" cy="703.91" fill="url(#SvgjsRadialGradient1025)"></circle><circle r="5" cx="-82.92" cy="657.49" fill="#8799e5"></circle><circle r="5" cx="-54.71" cy="801.48" fill="#8799e5"></circle><circle r="5" cx="64.02" cy="553.91" fill="#8799e5"></circle><circle r="5" cx="389.35" cy="530.52" fill="#8799e5"></circle><circle r="5" cx="373.41" cy="656.8" fill="#8799e5"></circle><circle r="5" cx="376.02" cy="829.63" fill="#8799e5"></circle><circle r="5" cx="498.37" cy="499.05" fill="#8799e5"></circle><circle r="5" cx="528.3" cy="844.89" fill="#8799e5"></circle><circle r="5" cx="698.2" cy="514.61" fill="#8799e5"></circle><circle r="5" cx="673.97" cy="702.43" fill="#8799e5"></circle><circle r="5" cx="687.62" cy="804.23" fill="#8799e5"></circle><circle r="5" cx="844.54" cy="544.56" fill="#8799e5"></circle><circle r="5" cx="823.99" cy="659.06" fill="#8799e5"></circle><circle r="5" cx="812.59" cy="797.02" fill="#8799e5"></circle><circle r="5" cx="961.41" cy="363.45" fill="#8799e5"></circle><circle r="5" cx="973.46" cy="646.38" fill="#8799e5"></circle><circle r="5" cx="1009.86" cy="856.93" fill="#8799e5"></circle><circle r="5" cx="1149.72" cy="238.8" fill="#8799e5"></circle><circle r="5" cx="1088.34" cy="533.33" fill="#8799e5"></circle><circle r="5" cx="1097.44" cy="712.49" fill="#8799e5"></circle><circle r="5" cx="1103.73" cy="857.76" fill="#8799e5"></circle><circle r="5" cx="1273.48" cy="-110.99" fill="#8799e5"></circle><circle r="5" cx="1244.28" cy="44.41" fill="#8799e5"></circle><circle r="5" cx="1307.98" cy="358.53" fill="#8799e5"></circle><circle r="5" cx="1300.63" cy="548.89" fill="#8799e5"></circle><circle r="5" cx="1251.78" cy="803.17" fill="#8799e5"></circle><circle r="5" cx="1446.63" cy="77.9" fill="#8799e5"></circle><circle r="5" cx="1449.63" cy="344.14" fill="#8799e5"></circle><circle r="5" cx="1456.76" cy="710.82" fill="#8799e5"></circle><circle r="5" cx="1589.7" cy="-43.17" fill="#8799e5"></circle><circle r="5" cx="1558.02" cy="106.3" fill="#8799e5"></circle><circle r="5" cx="1554.64" cy="207.87" fill="#8799e5"></circle><circle r="5" cx="1593.18" cy="847.05" fill="#8799e5"></circle></g><defs><mask id="SvgjsMask1024"><rect width="1440" height="660" fill="#ffffff"></rect></mask><radialGradient id="SvgjsRadialGradient1025"><stop stop-color="#ffffff" offset="0.1"></stop><stop stop-color="rgba(15, 51, 203, 1)" offset="0.2"></stop><stop stop-color="rgba(15, 51, 203, 0)" offset="1"></stop></radialGradient></defs></svg>